<?xml version="1.0" encoding="UTF-8"?>
<!DOCTYPE svg PUBLIC "-//W3C//DTD SVG 1.1//EN" "http://www.w3.org/Graphics/SVG/1.1/DTD/svg11.dtd">
<svg xmlns="http://www.w3.org/2000/svg" version="1.1" width="500px" height="500px" style="shape-rendering:geometricPrecision; text-rendering:geometricPrecision; image-rendering:optimizeQuality; fill-rule:evenodd; clip-rule:evenodd" xmlns:xlink="http://www.w3.org/1999/xlink">
<g><path style="opacity:1" fill="#fefefe" d="M -0.5,-0.5 C 166.167,-0.5 332.833,-0.5 499.5,-0.5C 499.5,166.167 499.5,332.833 499.5,499.5C 332.833,499.5 166.167,499.5 -0.5,499.5C -0.5,332.833 -0.5,166.167 -0.5,-0.5 Z"/></g>
<g><path style="opacity:1" fill="#e4edfc" d="M 302.5,74.5 C 302.5,104.833 302.5,135.167 302.5,165.5C 259.5,165.5 216.5,165.5 173.5,165.5C 173.5,212.833 173.5,260.167 173.5,307.5C 171.901,307.232 170.568,307.566 169.5,308.5C 168.351,308.791 167.684,309.624 167.5,311C 168.903,318.596 170.57,326.096 172.5,333.5C 172.5,336.167 172.5,338.833 172.5,341.5C 169.5,341.5 166.5,341.5 163.5,341.5C 160.962,326.958 152.962,316.458 139.5,310C 122.57,308.543 105.57,308.043 88.5,308.5C 88.5,319.5 88.5,330.5 88.5,341.5C 83.5,341.5 78.5,341.5 73.5,341.5C 73.5,336.833 73.5,332.167 73.5,327.5C 73.8297,321.132 73.4963,314.798 72.5,308.5C 65.5581,307.536 58.5581,307.203 51.5,307.5C 51.5,318.167 51.5,328.833 51.5,339.5C 46.6042,341.446 41.2709,342.113 35.5,341.5C 35.5,252.5 35.5,163.5 35.5,74.5C 124.5,74.5 213.5,74.5 302.5,74.5 Z"/></g>
<g><path style="opacity:1" fill="#f3f4f4" d="M 444.5,167.5 C 445.117,167.611 445.617,167.944 446,168.5C 446.667,256.833 446.667,345.167 446,433.5C 445.167,434.333 444.333,435.167 443.5,436C 354.833,436.667 266.167,436.667 177.5,436C 176.646,434.978 175.646,434.145 174.5,433.5C 173.667,404.506 173.167,375.506 173,346.5C 169.943,345.549 166.777,345.216 163.5,345.5C 163.5,344.167 163.5,342.833 163.5,341.5C 166.5,341.5 169.5,341.5 172.5,341.5C 172.5,338.833 172.5,336.167 172.5,333.5C 178.994,354.486 185.828,375.486 193,396.5C 193.5,397 194,397.5 194.5,398C 203.16,398.5 211.827,398.666 220.5,398.5C 225.185,384.158 229.851,369.824 234.5,355.5C 234.291,354.914 233.957,354.414 233.5,354C 240.326,339.192 244.493,323.692 246,307.5C 238.396,308.821 230.563,308.821 222.5,307.5C 216.893,325.594 212.059,343.928 208,362.5C 206.065,359.448 204.732,356.115 204,352.5C 202.024,351.457 201.524,350.123 202.5,348.5C 199.177,334.879 195.677,321.212 192,307.5C 191.586,307.043 191.086,306.709 190.5,306.5C 183.624,308.226 176.624,308.892 169.5,308.5C 170.568,307.566 171.901,307.232 173.5,307.5C 173.5,260.167 173.5,212.833 173.5,165.5C 216.5,165.5 259.5,165.5 302.5,165.5C 302.5,135.167 302.5,104.833 302.5,74.5C 302.897,73.475 303.563,73.3083 304.5,74C 306.487,75.3189 307.654,77.1523 308,79.5C 308.171,107.739 308.671,135.905 309.5,164C 353.5,164.333 397.5,164.667 441.5,165C 442.942,165.377 443.942,166.21 444.5,167.5 Z"/></g>
<g><path style="opacity:1" fill="#ededed" d="M 444.5,167.5 C 445.659,255.139 445.825,342.805 445,430.5C 444.691,431.766 444.191,432.933 443.5,434C 399.249,435.162 354.916,435.662 310.5,435.5C 266.833,435.333 223.167,435.167 179.5,435C 178.692,434.692 178.025,434.192 177.5,433.5C 265.497,432.5 353.497,432.167 441.5,432.5C 441.333,343.833 441.5,255.166 442,166.5C 442.671,167.252 443.504,167.586 444.5,167.5 Z"/></g>
<g><path style="opacity:1" fill="#fe5858" d="M 73.5,327.5 C 72.508,334.982 72.1746,342.648 72.5,350.5C 71.5264,364.161 71.8598,377.494 73.5,390.5C 73.5,393.167 73.5,395.833 73.5,398.5C 65.8333,398.5 58.1667,398.5 50.5,398.5C 51.8759,378.683 52.2093,359.017 51.5,339.5C 51.5,328.833 51.5,318.167 51.5,307.5C 58.5581,307.203 65.5581,307.536 72.5,308.5C 73.4963,314.798 73.8297,321.132 73.5,327.5 Z"/></g>
<g><path style="opacity:1" fill="#fe5858" d="M 172.5,333.5 C 170.57,326.096 168.903,318.596 167.5,311C 167.684,309.624 168.351,308.791 169.5,308.5C 176.624,308.892 183.624,308.226 190.5,306.5C 191.086,306.709 191.586,307.043 192,307.5C 195.677,321.212 199.177,334.879 202.5,348.5C 201.524,350.123 202.024,351.457 204,352.5C 204.732,356.115 206.065,359.448 208,362.5C 212.059,343.928 216.893,325.594 222.5,307.5C 230.563,308.821 238.396,308.821 246,307.5C 244.493,323.692 240.326,339.192 233.5,354C 233.957,354.414 234.291,354.914 234.5,355.5C 229.851,369.824 225.185,384.158 220.5,398.5C 211.827,398.666 203.16,398.5 194.5,398C 194,397.5 193.5,397 193,396.5C 185.828,375.486 178.994,354.486 172.5,333.5 Z"/></g>
<g><path style="opacity:1" fill="#ff5858" d="M 163.5,341.5 C 163.5,342.833 163.5,344.167 163.5,345.5C 164.991,358.559 162.824,370.892 157,382.5C 150.875,390.817 142.709,395.983 132.5,398C 117.837,398.5 103.17,398.667 88.5,398.5C 88.5209,386.721 88.8542,375.055 89.5,363.5C 92.31,362.12 93.6433,359.786 93.5,356.5C 91.6576,351.459 89.991,346.459 88.5,341.5C 88.5,330.5 88.5,319.5 88.5,308.5C 105.57,308.043 122.57,308.543 139.5,310C 152.962,316.458 160.962,326.958 163.5,341.5 Z"/></g>
<g><path style="opacity:1" fill="#e4ecfa" d="M 136.5,339.5 C 128.903,341.467 120.903,342.134 112.5,341.5C 112.5,338.167 112.5,334.833 112.5,331.5C 118.176,331.334 123.843,331.501 129.5,332C 132.739,333.736 135.073,336.236 136.5,339.5 Z"/></g>
<g><path style="opacity:1" fill="#b4b0b0" d="M 253.5,344.5 C 264.172,344.333 274.839,344.5 285.5,345C 284.544,348.394 284.211,351.894 284.5,355.5C 278.167,355.5 271.833,355.5 265.5,355.5C 265.5,357.833 265.5,360.167 265.5,362.5C 271.167,362.5 276.833,362.5 282.5,362.5C 282.824,366.555 282.491,370.555 281.5,374.5C 276.565,373.552 271.565,373.219 266.5,373.5C 266.5,376.167 266.5,378.833 266.5,381.5C 273.319,381.871 279.986,381.205 286.5,379.5C 286.5,383.833 286.5,388.167 286.5,392.5C 275.167,392.5 263.833,392.5 252.5,392.5C 252.839,384.306 253.505,376.14 254.5,368C 253.878,360.177 253.545,352.344 253.5,344.5 Z"/></g>
<g><path style="opacity:1" fill="#fdf9f9" d="M 136.5,339.5 C 142.306,353.935 138.64,365.435 125.5,374C 121.179,374.499 116.846,374.666 112.5,374.5C 112.5,363.5 112.5,352.5 112.5,341.5C 120.903,342.134 128.903,341.467 136.5,339.5 Z"/></g>
<g><path style="opacity:1" fill="#b4b0b0" d="M 408.5,349.5 C 411.833,349.5 415.167,349.5 418.5,349.5C 418.5,352.833 418.5,356.167 418.5,359.5C 421.127,358.908 423.794,358.575 426.5,358.5C 426.492,361.545 426.159,364.545 425.5,367.5C 423.167,367.5 420.833,367.5 418.5,367.5C 418.334,372.511 418.501,377.511 419,382.5C 419.388,383.428 420.055,384.095 421,384.5C 424.495,383.131 426.328,384.464 426.5,388.5C 425.99,390.088 424.99,391.255 423.5,392C 414.431,394.486 409.764,391.152 409.5,382C 409.763,379.379 410.43,376.879 411.5,374.5C 410.246,372.666 409.579,370.666 409.5,368.5C 407.5,368.5 405.5,368.5 403.5,368.5C 403.5,365.5 403.5,362.5 403.5,359.5C 405.167,359.5 406.833,359.5 408.5,359.5C 408.5,356.167 408.5,352.833 408.5,349.5 Z"/></g>
<g><path style="opacity:1" fill="#ff8280" d="M 88.5,341.5 C 89.991,346.459 91.6576,351.459 93.5,356.5C 93.6433,359.786 92.31,362.12 89.5,363.5C 90.1711,356.171 89.8377,348.837 88.5,341.5 Z"/></g>
<g><path style="opacity:1" fill="#b5b1b1" d="M 295.5,359.5 C 298.119,359.232 300.619,359.565 303,360.5C 304.241,366.484 306.241,372.151 309,377.5C 311.847,372.129 314.014,366.463 315.5,360.5C 319.5,359.167 323.5,359.167 327.5,360.5C 323.136,370.901 318.469,381.235 313.5,391.5C 310.572,392.484 307.572,392.817 304.5,392.5C 299.833,381.833 295.167,371.167 290.5,360.5C 292.415,360.784 294.081,360.451 295.5,359.5 Z"/></g>
<g><path style="opacity:1" fill="#b5b1b1" d="M 340.5,359.5 C 355.95,357.459 362.95,363.959 361.5,379C 354.809,379.169 348.142,379.669 341.5,380.5C 345.566,385.473 350.066,385.806 355,381.5C 361.099,383.399 361.933,386.566 357.5,391C 351.947,392.57 346.281,392.903 340.5,392C 330.288,387.07 327.121,379.236 331,368.5C 333.406,364.592 336.572,361.592 340.5,359.5 Z"/></g>
<g><path style="opacity:1" fill="#b4b0b0" d="M 383.5,358.5 C 390.265,357.469 395.432,359.802 399,365.5C 399.5,374.494 399.666,383.494 399.5,392.5C 395.774,392.823 392.107,392.489 388.5,391.5C 389.632,384.217 389.799,376.883 389,369.5C 384.82,365.208 381.487,365.874 379,371.5C 378.5,378.492 378.334,385.492 378.5,392.5C 374.833,392.5 371.167,392.5 367.5,392.5C 367.653,381.479 367.32,370.479 366.5,359.5C 371.085,358.987 375.418,359.654 379.5,361.5C 381.261,360.965 382.594,359.965 383.5,358.5 Z"/></g>
<g><path style="opacity:1" fill="#ffc8c8" d="M 72.5,350.5 C 73.4956,363.656 73.8289,376.99 73.5,390.5C 71.8598,377.494 71.5264,364.161 72.5,350.5 Z"/></g>
<g><path style="opacity:1" fill="#ededed" d="M 343.5,367.5 C 346.206,367.575 348.873,367.908 351.5,368.5C 351.5,369.5 351.5,370.5 351.5,371.5C 347.952,371.905 344.619,371.405 341.5,370C 342.381,369.292 343.047,368.458 343.5,367.5 Z"/></g>
</svg>
